<svg width="58" height="29" viewBox="0 0 58 29" fill="none" xmlns="http://www.w3.org/2000/svg">
<path d="M0 0H2.35214C3.17684 0 3.78955 0.179306 4.19029 0.537918C4.59102 0.890838 4.79139 1.36614 4.79139 1.96383C4.79139 2.56151 4.59102 3.03966 4.19029 3.39828C3.78955 3.7512 3.17684 3.92765 2.35214 3.92765H1.30674V5.97687H0V0ZM2.22146 2.8689C2.68608 2.8689 3.01132 2.79205 3.19716 2.63836C3.38882 2.48467 3.48465 2.25982 3.48465 1.96383C3.48465 1.67352 3.38882 1.45152 3.19716 1.29783C3.01132 1.13845 2.68608 1.05876 2.22146 1.05876H1.30674V2.8689H2.22146Z" fill="white"/>
<path d="M6.83434 6.07933C6.5846 6.07933 6.36391 6.04517 6.17225 5.97687C5.98059 5.90287 5.81798 5.80325 5.6844 5.67802C5.55082 5.5471 5.44919 5.39626 5.37949 5.22549C5.3098 5.04903 5.27496 4.85834 5.27496 4.65342C5.27496 3.74266 5.82669 3.28728 6.93016 3.28728H8.3066V3.07382C8.3066 2.77782 8.23691 2.57005 8.09752 2.45052C7.96394 2.33098 7.74906 2.27121 7.45286 2.27121C7.19151 2.27121 7.00276 2.31675 6.88661 2.40782C6.77045 2.49321 6.70366 2.60136 6.68624 2.73228H5.5363C5.54792 2.53875 5.59728 2.35659 5.6844 2.18583C5.77732 2.01506 5.90509 1.86991 6.06771 1.75037C6.23614 1.62514 6.43941 1.52837 6.67752 1.46006C6.91564 1.38606 7.18861 1.34906 7.49642 1.34906C7.79261 1.34906 8.05977 1.38037 8.29789 1.44299C8.54181 1.5056 8.74799 1.60806 8.91641 1.75037C9.09064 1.88698 9.22422 2.06629 9.31715 2.28829C9.41007 2.51028 9.45653 2.77782 9.45653 3.09089V4.82419C9.45653 5.06326 9.45944 5.27387 9.46524 5.45603C9.47686 5.63249 9.49428 5.8061 9.51751 5.97687H8.44599C8.42275 5.85164 8.40823 5.75772 8.40243 5.6951C8.40243 5.62679 8.40243 5.52718 8.40243 5.39626C8.27465 5.57841 8.0801 5.73779 7.81875 5.87441C7.56321 6.01102 7.23507 6.07933 6.83434 6.07933ZM7.19151 5.20841C7.3309 5.20841 7.46738 5.19134 7.60096 5.15718C7.73454 5.11734 7.8536 5.06041 7.95813 4.98641C8.06267 4.90672 8.14689 4.80711 8.21077 4.68757C8.27466 4.56803 8.3066 4.42857 8.3066 4.26919V4.05573H7.14795C6.92726 4.05573 6.75303 4.10696 6.62526 4.20942C6.50329 4.30619 6.44231 4.43996 6.44231 4.61073C6.44231 4.79288 6.5062 4.93803 6.63397 5.04618C6.76174 5.15434 6.94759 5.20841 7.19151 5.20841Z" fill="white"/>
<path d="M12.5073 6.07933C12.1879 6.07933 11.8888 6.03094 11.61 5.93418C11.337 5.83741 11.0989 5.69225 10.8957 5.49872C10.6924 5.30518 10.5327 5.06326 10.4165 4.77295C10.3004 4.48265 10.2423 4.14396 10.2423 3.75689V3.58612C10.2423 3.22182 10.3033 2.9002 10.4252 2.62128C10.5472 2.34236 10.7098 2.10898 10.9131 1.92114C11.1222 1.73329 11.3632 1.59099 11.6361 1.49422C11.9091 1.39745 12.1995 1.34906 12.5073 1.34906C12.8325 1.34906 13.12 1.39176 13.3698 1.47714C13.6253 1.56252 13.8402 1.67922 14.0144 1.82721C14.1886 1.97521 14.3251 2.14883 14.4239 2.34806C14.5226 2.54728 14.5807 2.76074 14.5981 2.98843H13.4307C13.3843 2.77782 13.2884 2.61274 13.1433 2.49321C13.0039 2.36798 12.7919 2.30536 12.5073 2.30536C12.3563 2.30536 12.214 2.33098 12.0804 2.38221C11.9527 2.43344 11.8365 2.51313 11.732 2.62128C11.6332 2.72374 11.5548 2.85467 11.4968 3.01405C11.4387 3.17343 11.4096 3.36412 11.4096 3.58612V3.75689C11.4096 3.99596 11.4358 4.20373 11.488 4.38019C11.5461 4.55096 11.6245 4.69326 11.7233 4.80711C11.822 4.91526 11.9381 4.99495 12.0717 5.04618C12.2053 5.09741 12.3505 5.12303 12.5073 5.12303C12.7338 5.12303 12.9284 5.06611 13.091 4.95226C13.2594 4.83272 13.3727 4.66196 13.4307 4.43996H14.5981C14.5691 4.69042 14.4965 4.91811 14.3803 5.12303C14.27 5.32226 14.1219 5.49302 13.936 5.63533C13.756 5.77764 13.544 5.88864 13.3001 5.96833C13.0561 6.04233 12.7919 6.07933 12.5073 6.07933Z" fill="white"/>
<path d="M15.3859 1.45152H16.5358V5.03764H17.9035V1.45152H19.0535V5.03764H20.4212V1.45152H21.5711V5.97687H15.3859V1.45152Z" fill="white"/>
<path d="M22.6172 1.45152H23.7671V4.35457L25.8231 1.45152H26.8859V5.97687H25.736V3.07382L23.68 5.97687H22.6172V1.45152Z" fill="white"/>
<path d="M27.9344 1.45152H29.0059V2.11752C29.122 1.9126 29.305 1.73329 29.5547 1.5796C29.8045 1.42591 30.121 1.34906 30.5043 1.34906C31.1199 1.34906 31.599 1.53691 31.9417 1.9126C32.2902 2.28259 32.4644 2.84043 32.4644 3.58612V3.75689C32.4644 4.53673 32.2873 5.12018 31.933 5.50726C31.5845 5.88864 31.1083 6.07933 30.5043 6.07933C30.1907 6.07933 29.9119 6.01387 29.668 5.88294C29.4299 5.74633 29.2353 5.56987 29.0843 5.35356V7.68454H27.9344V1.45152ZM30.2342 5.12303C30.5362 5.12303 30.7889 5.01203 30.9921 4.79003C31.1954 4.56234 31.297 4.21796 31.297 3.75689V3.58612C31.297 3.1592 31.1983 2.84044 31.0008 2.62982C30.8034 2.41352 30.5478 2.30536 30.2342 2.30536C29.9032 2.30536 29.6273 2.39929 29.4066 2.58713C29.1917 2.76928 29.0843 3.04536 29.0843 3.41535V3.92765C29.0843 4.33181 29.1888 4.63349 29.3979 4.83272C29.6128 5.02626 29.8916 5.12303 30.2342 5.12303Z" fill="white"/>
<path d="M35.3848 6.07933C35.0712 6.07933 34.7721 6.03379 34.4875 5.94271C34.2088 5.84595 33.9648 5.70364 33.7558 5.51579C33.5467 5.32226 33.3812 5.08034 33.2592 4.79003C33.1372 4.49403 33.0763 4.14965 33.0763 3.75689V3.58612C33.0763 3.21043 33.1343 2.88313 33.2505 2.60421C33.3666 2.32529 33.5264 2.09475 33.7296 1.9126C33.9329 1.72475 34.1681 1.58529 34.4353 1.49422C34.7024 1.39745 34.9899 1.34906 35.2977 1.34906C36.0237 1.34906 36.5754 1.53691 36.9529 1.9126C37.3304 2.28829 37.5192 2.8319 37.5192 3.54343V4.02158H34.2523C34.2581 4.22081 34.293 4.39442 34.3569 4.54242C34.4207 4.68473 34.505 4.80142 34.6095 4.89249C34.714 4.98357 34.8331 5.05188 34.9667 5.09741C35.1061 5.13726 35.2454 5.15718 35.3848 5.15718C35.681 5.15718 35.9046 5.11449 36.0556 5.02911C36.2066 4.94372 36.3141 4.81849 36.378 4.65342H37.4321C37.3391 5.12587 37.1097 5.48164 36.7439 5.72072C36.378 5.95979 35.925 6.07933 35.3848 6.07933ZM35.3413 2.27121C35.2077 2.27121 35.0741 2.28829 34.9405 2.32244C34.8128 2.35659 34.6995 2.41067 34.6008 2.48467C34.5021 2.55867 34.4207 2.65828 34.3569 2.78351C34.293 2.90874 34.2581 3.05959 34.2523 3.23605H36.4041C36.3983 3.0482 36.3663 2.89167 36.3083 2.76644C36.256 2.64121 36.1805 2.54159 36.0818 2.46759C35.9888 2.39359 35.8785 2.34236 35.7507 2.3139C35.623 2.28544 35.4865 2.27121 35.3413 2.27121Z" fill="white"/>
<path d="M38.3475 1.45152H39.4974V3.20189H41.4662V1.45152H42.6162V5.97687H41.4662V4.14111H39.4974V5.97687H38.3475V1.45152Z" fill="white"/>
<path d="M43.6646 1.45152H44.8146V3.20189H46.7834V1.45152H47.9333V5.97687H46.7834V4.14111H44.8146V5.97687H43.6646V1.45152Z" fill="white"/>
<path d="M50.3669 6.07933C50.1172 6.07933 49.8965 6.04517 49.7048 5.97687C49.5132 5.90287 49.3506 5.80325 49.217 5.67802C49.0834 5.5471 48.9818 5.39626 48.9121 5.22549C48.8424 5.04903 48.8075 4.85834 48.8075 4.65342C48.8075 3.74266 49.3593 3.28728 50.4627 3.28728H51.8392V3.07382C51.8392 2.77782 51.7695 2.57005 51.6301 2.45052C51.4965 2.33098 51.2816 2.27121 50.9854 2.27121C50.7241 2.27121 50.5353 2.31675 50.4192 2.40782C50.303 2.49321 50.2362 2.60136 50.2188 2.73228H49.0689C49.0805 2.53875 49.1299 2.35659 49.217 2.18583C49.3099 2.01506 49.4377 1.86991 49.6003 1.75037C49.7687 1.62514 49.972 1.52837 50.2101 1.46006C50.4482 1.38606 50.7212 1.34906 51.029 1.34906C51.3252 1.34906 51.5924 1.38037 51.8305 1.44299C52.0744 1.5056 52.2806 1.60806 52.449 1.75037C52.6232 1.88698 52.7568 2.06629 52.8497 2.28829C52.9427 2.51028 52.9891 2.77782 52.9891 3.09089V4.82419C52.9891 5.06326 52.992 5.27387 52.9978 5.45603C53.0094 5.63249 53.0269 5.8061 53.0501 5.97687H51.9786C51.9553 5.85164 51.9408 5.75772 51.935 5.6951C51.935 5.62679 51.935 5.52718 51.935 5.39626C51.8072 5.57841 51.6127 5.73779 51.3513 5.87441C51.0958 6.01102 50.7677 6.07933 50.3669 6.07933ZM50.7241 5.20841C50.8635 5.20841 51 5.19134 51.1335 5.15718C51.2671 5.11734 51.3862 5.06041 51.4907 4.98641C51.5953 4.90672 51.6795 4.80711 51.7434 4.68757C51.8072 4.56803 51.8392 4.42857 51.8392 4.26919V4.05573H50.6805C50.4598 4.05573 50.2856 4.10696 50.1578 4.20942C50.0359 4.30619 49.9749 4.43996 49.9749 4.61073C49.9749 4.79288 50.0388 4.93803 50.1666 5.04618C50.2943 5.15434 50.4802 5.20841 50.7241 5.20841Z" fill="white"/>
<path d="M54.9248 4.27773C54.5705 4.16388 54.3121 3.99312 54.1495 3.76543C53.9868 3.53774 53.9055 3.2702 53.9055 2.96282C53.9055 2.74082 53.9433 2.53875 54.0188 2.35659C54.1001 2.16875 54.2192 2.00937 54.376 1.87844C54.5328 1.74183 54.7302 1.63652 54.9684 1.56252C55.2123 1.48852 55.4969 1.45152 55.8221 1.45152H58V5.97687H56.8501V4.41434H56.0225L55.0206 5.97687H53.7313L54.9248 4.27773ZM55.0555 2.96282C55.0555 3.15635 55.1194 3.29866 55.2471 3.38974C55.3807 3.48081 55.5578 3.52635 55.7785 3.52635H56.8501V2.39075H55.7785C55.5578 2.39075 55.3807 2.43913 55.2471 2.5359C55.1194 2.62698 55.0555 2.76928 55.0555 2.96282Z" fill="white"/>
<path d="M8.71809 12.4294H12.0285V13.3687H9.86802V16.9548H8.71809V12.4294Z" fill="white"/>
<path d="M13.9381 17.0572C13.6883 17.0572 13.4676 17.0231 13.276 16.9548C13.0843 16.8808 12.9217 16.7812 12.7881 16.6559C12.6545 16.525 12.5529 16.3742 12.4832 16.2034C12.4135 16.0269 12.3787 15.8363 12.3787 15.6313C12.3787 14.7206 12.9304 14.2652 14.0339 14.2652H15.4103V14.0517C15.4103 13.7557 15.3406 13.548 15.2012 13.4284C15.0677 13.3089 14.8528 13.2491 14.5566 13.2491C14.2952 13.2491 14.1065 13.2947 13.9903 13.3857C13.8742 13.4711 13.8074 13.5793 13.79 13.7102H12.64C12.6516 13.5167 12.701 13.3345 12.7881 13.1637C12.881 12.993 13.0088 12.8478 13.1714 12.7283C13.3399 12.6031 13.5431 12.5063 13.7812 12.438C14.0194 12.364 14.2923 12.327 14.6001 12.327C14.8963 12.327 15.1635 12.3583 15.4016 12.4209C15.6455 12.4835 15.8517 12.586 16.0201 12.7283C16.1944 12.8649 16.3279 13.0442 16.4209 13.2662C16.5138 13.4882 16.5602 13.7557 16.5602 14.0688V15.8021C16.5602 16.0412 16.5632 16.2518 16.569 16.4339C16.5806 16.6104 16.598 16.784 16.6212 16.9548H15.5497C15.5265 16.8296 15.5119 16.7356 15.5061 16.673C15.5061 16.6047 15.5061 16.5051 15.5061 16.3742C15.3784 16.5563 15.1838 16.7157 14.9225 16.8523C14.6669 16.9889 14.3388 17.0572 13.9381 17.0572ZM14.2952 16.1863C14.4346 16.1863 14.5711 16.1693 14.7047 16.1351C14.8383 16.0953 14.9573 16.0383 15.0618 15.9643C15.1664 15.8846 15.2506 15.785 15.3145 15.6655C15.3784 15.546 15.4103 15.4065 15.4103 15.2471V15.0336H14.2517C14.031 15.0336 13.8567 15.0849 13.729 15.1873C13.607 15.2841 13.546 15.4179 13.546 15.5886C13.546 15.7708 13.6099 15.9159 13.7377 16.0241C13.8655 16.1323 14.0513 16.1863 14.2952 16.1863Z" fill="white"/>
<path d="M17.5638 12.4294H18.6353V13.0954C18.7515 12.8905 18.9344 12.7112 19.1841 12.5575C19.4339 12.4038 19.7504 12.327 20.1337 12.327C20.7493 12.327 21.2285 12.5148 21.5711 12.8905C21.9196 13.2605 22.0938 13.8184 22.0938 14.564V14.7348C22.0938 15.5146 21.9167 16.0981 21.5624 16.4852C21.214 16.8666 20.7377 17.0572 20.1337 17.0572C19.8201 17.0572 19.5413 16.9918 19.2974 16.8609C19.0593 16.7242 18.8647 16.5478 18.7137 16.3315V18.6625H17.5638V12.4294ZM19.8637 16.1009C20.1657 16.1009 20.4183 15.9899 20.6216 15.7679C20.8248 15.5403 20.9265 15.1959 20.9265 14.7348V14.564C20.9265 14.1371 20.8277 13.8184 20.6303 13.6077C20.4328 13.3914 20.1773 13.2833 19.8637 13.2833C19.5326 13.2833 19.2567 13.3772 19.036 13.565C18.8212 13.7472 18.7137 14.0233 18.7137 14.3933V14.9056C18.7137 15.3097 18.8183 15.6114 19.0273 15.8106C19.2422 16.0042 19.521 16.1009 19.8637 16.1009Z" fill="white"/>
<path d="M24.3086 17.0572C24.0589 17.0572 23.8382 17.0231 23.6465 16.9548C23.4549 16.8808 23.2923 16.7812 23.1587 16.6559C23.0251 16.525 22.9235 16.3742 22.8538 16.2034C22.7841 16.0269 22.7492 15.8363 22.7492 15.6313C22.7492 14.7206 23.301 14.2652 24.4044 14.2652H25.7809V14.0517C25.7809 13.7557 25.7112 13.548 25.5718 13.4284C25.4382 13.3089 25.2233 13.2491 24.9271 13.2491C24.6658 13.2491 24.477 13.2947 24.3609 13.3857C24.2447 13.4711 24.1779 13.5793 24.1605 13.7102H23.0106C23.0222 13.5167 23.0716 13.3345 23.1587 13.1637C23.2516 12.993 23.3794 12.8478 23.542 12.7283C23.7104 12.6031 23.9137 12.5063 24.1518 12.438C24.3899 12.364 24.6629 12.327 24.9707 12.327C25.2669 12.327 25.5341 12.3583 25.7722 12.4209C26.0161 12.4835 26.2223 12.586 26.3907 12.7283C26.5649 12.8649 26.6985 13.0442 26.7914 13.2662C26.8844 13.4882 26.9308 13.7557 26.9308 14.0688V15.8021C26.9308 16.0412 26.9337 16.2518 26.9395 16.4339C26.9511 16.6104 26.9686 16.784 26.9918 16.9548H25.9203C25.897 16.8296 25.8825 16.7356 25.8767 16.673C25.8767 16.6047 25.8767 16.5051 25.8767 16.3742C25.7489 16.5563 25.5544 16.7157 25.293 16.8523C25.0375 16.9889 24.7094 17.0572 24.3086 17.0572ZM24.6658 16.1863C24.8052 16.1863 24.9417 16.1693 25.0752 16.1351C25.2088 16.0953 25.3279 16.0383 25.4324 15.9643C25.537 15.8846 25.6212 15.785 25.6851 15.6655C25.7489 15.546 25.7809 15.4065 25.7809 15.2471V15.0336H24.6222C24.4015 15.0336 24.2273 15.0849 24.0995 15.1873C23.9776 15.2841 23.9166 15.4179 23.9166 15.5886C23.9166 15.7708 23.9805 15.9159 24.1083 16.0241C24.236 16.1323 24.4219 16.1863 24.6658 16.1863Z" fill="white"/>
<path d="M27.9344 12.4294H29.0843V14.1798H31.0531V12.4294H32.203V16.9548H31.0531V15.119H29.0843V16.9548H27.9344V12.4294Z" fill="white"/>
<path d="M34.3753 13.3687H32.903V12.4294H36.9975V13.3687H35.5252V16.9548H34.3753V13.3687Z" fill="white"/>
<path d="M37.6924 12.4294H38.8423V15.3325L40.8983 12.4294H41.9611V16.9548H40.8112V14.0517L38.7552 16.9548H37.6924V12.4294Z" fill="white"/>
<path d="M43.9417 15.2556C43.5874 15.1418 43.329 14.971 43.1664 14.7433C43.0037 14.5157 42.9224 14.2481 42.9224 13.9407C42.9224 13.7187 42.9602 13.5167 43.0357 13.3345C43.117 13.1467 43.236 12.9873 43.3929 12.8564C43.5497 12.7197 43.7471 12.6144 43.9852 12.5404C44.2292 12.4664 44.5138 12.4294 44.839 12.4294H47.0169V16.9548H45.867V15.3923H45.0394L44.0375 16.9548H42.7482L43.9417 15.2556ZM44.0724 13.9407C44.0724 14.1343 44.1362 14.2766 44.264 14.3677C44.3976 14.4587 44.5747 14.5043 44.7954 14.5043H45.867V13.3687H44.7954C44.5747 13.3687 44.3976 13.417 44.264 13.5138C44.1362 13.6049 44.0724 13.7472 44.0724 13.9407Z" fill="white"/>
<path d="M12.5997 23.4074H13.7496V25.1577H15.7185V23.4074H16.8684V27.9327H15.7185V26.097H13.7496V27.9327H12.5997V23.4074Z" fill="white"/>
<path d="M19.302 28.0352C19.0523 28.0352 18.8316 28.001 18.6399 27.9327C18.4483 27.8587 18.2856 27.7591 18.1521 27.6339C18.0185 27.5029 17.9168 27.3521 17.8472 27.1813C17.7775 27.0049 17.7426 26.8142 17.7426 26.6093C17.7426 25.6985 18.2943 25.2431 19.3978 25.2431H20.7743V25.0297C20.7743 24.7337 20.7046 24.5259 20.5652 24.4063C20.4316 24.2868 20.2167 24.227 19.9205 24.227C19.6592 24.227 19.4704 24.2726 19.3543 24.3637C19.2381 24.449 19.1713 24.5572 19.1539 24.6881H18.004C18.0156 24.4946 18.0649 24.3124 18.1521 24.1417C18.245 23.9709 18.3728 23.8257 18.5354 23.7062C18.7038 23.581 18.9071 23.4842 19.1452 23.4159C19.3833 23.3419 19.6563 23.3049 19.9641 23.3049C20.2603 23.3049 20.5274 23.3362 20.7655 23.3988C21.0095 23.4614 21.2156 23.5639 21.3841 23.7062C21.5583 23.8428 21.6919 24.0221 21.7848 24.2441C21.8777 24.4661 21.9242 24.7337 21.9242 25.0467V26.78C21.9242 27.0191 21.9271 27.2297 21.9329 27.4119C21.9445 27.5883 21.9619 27.7619 21.9852 27.9327H20.9136C20.8904 27.8075 20.8759 27.7135 20.8701 27.6509C20.8701 27.5826 20.8701 27.483 20.8701 27.3521C20.7423 27.5342 20.5478 27.6936 20.2864 27.8302C20.0309 27.9669 19.7027 28.0352 19.302 28.0352ZM19.6592 27.1642C19.7986 27.1642 19.935 27.1472 20.0686 27.113C20.2022 27.0732 20.3213 27.0162 20.4258 26.9422C20.5303 26.8626 20.6145 26.7629 20.6784 26.6434C20.7423 26.5239 20.7743 26.3844 20.7743 26.225V26.0116H19.6156C19.3949 26.0116 19.2207 26.0628 19.0929 26.1653C18.9709 26.262 18.91 26.3958 18.91 26.5666C18.91 26.7487 18.9739 26.8939 19.1016 27.002C19.2294 27.1102 19.4152 27.1642 19.6592 27.1642Z" fill="white"/>
<path d="M24.975 26.8739H26.3688V23.2537L24.975 24.227V22.9804L26.4472 21.9558H27.6756V26.8739H28.8081V27.9327H24.975V26.8739Z" fill="white"/>
<path d="M31.769 23.4074H35.0794V24.3466H32.9189V27.9327H31.769V23.4074Z" fill="white"/>
<path d="M37.7797 28.0352C37.4661 28.0352 37.167 27.9896 36.8824 27.8985C36.6036 27.8018 36.3597 27.6566 36.1506 27.4631C35.9415 27.2696 35.776 27.0276 35.654 26.7373C35.5321 26.447 35.4711 26.1055 35.4711 25.7127V25.542C35.4711 25.172 35.5321 24.8475 35.654 24.5686C35.776 24.2897 35.9415 24.0563 36.1506 23.8684C36.3597 23.6806 36.6036 23.5411 36.8824 23.4501C37.167 23.3533 37.4661 23.3049 37.7797 23.3049C38.0933 23.3049 38.3895 23.3533 38.6683 23.4501C38.947 23.5411 39.191 23.6806 39.4 23.8684C39.6149 24.0563 39.7834 24.2897 39.9053 24.5686C40.0273 24.8475 40.0883 25.172 40.0883 25.542V25.7127C40.0883 26.0998 40.0273 26.4385 39.9053 26.7288C39.7834 27.0191 39.6149 27.261 39.4 27.4546C39.191 27.6481 38.947 27.7932 38.6683 27.89C38.3895 27.9868 38.0933 28.0352 37.7797 28.0352ZM37.7797 27.0789C38.1049 27.0789 38.375 26.965 38.5899 26.7373C38.8106 26.5096 38.9209 26.1681 38.9209 25.7127V25.542C38.9209 25.1264 38.8106 24.8105 38.5899 24.5942C38.375 24.3722 38.1049 24.2612 37.7797 24.2612C37.4486 24.2612 37.1757 24.3722 36.9608 24.5942C36.7459 24.8105 36.6385 25.1264 36.6385 25.542V25.7127C36.6385 26.1738 36.7459 26.5182 36.9608 26.7459C37.1757 26.9679 37.4486 27.0789 37.7797 27.0789Z" fill="white"/>
<path d="M40.4789 26.9935H41.0016C41.0597 26.9081 41.112 26.7857 41.1584 26.6263C41.2049 26.4613 41.2397 26.2791 41.263 26.0799C41.292 25.875 41.3123 25.6615 41.3239 25.4395C41.3414 25.2118 41.3501 24.9898 41.3501 24.7735V23.4074H44.9654V26.9935H45.5317V29H44.5211V27.9327H41.4895V29H40.4789V26.9935ZM43.8155 26.9935V24.3466H42.4042V24.9443C42.4042 25.1435 42.3984 25.3399 42.3868 25.5334C42.3752 25.727 42.3577 25.9148 42.3345 26.097C42.3171 26.2734 42.2909 26.4385 42.2561 26.5922C42.2212 26.7459 42.1777 26.8796 42.1254 26.9935H43.8155Z" fill="white"/>
</svg>
