<svg width="52" height="28" viewBox="0 0 52 28" fill="none" xmlns="http://www.w3.org/2000/svg">
<path d="M0 0H2.10881C2.8482 0 3.39753 0.173123 3.75681 0.519369C4.11609 0.860119 4.29573 1.31903 4.29573 1.89611C4.29573 2.47319 4.11609 2.93485 3.75681 3.28109C3.39753 3.62184 2.8482 3.79222 2.10881 3.79222H1.17156V5.77077H0V0ZM1.99166 2.76997C2.40821 2.76997 2.6998 2.69577 2.86642 2.54738C3.03825 2.39899 3.12417 2.1819 3.12417 1.89611C3.12417 1.61582 3.03825 1.40147 2.86642 1.25308C2.6998 1.09919 2.40821 1.02225 1.99166 1.02225H1.17156V2.76997H1.99166Z" fill="white"/>
<path d="M6.12734 5.8697C5.90344 5.8697 5.70557 5.83672 5.53374 5.77077C5.36191 5.69932 5.21612 5.60314 5.09636 5.48223C4.9766 5.35582 4.88548 5.21018 4.82299 5.0453C4.76051 4.87493 4.72927 4.69081 4.72927 4.49296C4.72927 3.6136 5.22393 3.17392 6.21325 3.17392H7.44729V2.96782C7.44729 2.68203 7.38481 2.48143 7.25985 2.36601C7.14009 2.2506 6.94743 2.19289 6.68187 2.19289C6.44756 2.19289 6.27834 2.23686 6.1742 2.3248C6.07006 2.40723 6.01018 2.51166 5.99456 2.63807H4.96358C4.974 2.4512 5.01825 2.27533 5.09636 2.11045C5.17967 1.94557 5.29422 1.80543 5.44002 1.69001C5.59102 1.5691 5.77326 1.47567 5.98675 1.40972C6.20023 1.33827 6.44496 1.30254 6.72093 1.30254C6.98648 1.30254 7.226 1.33277 7.43948 1.39323C7.65818 1.45368 7.84302 1.55261 7.99402 1.69001C8.15023 1.82191 8.26999 1.99504 8.3533 2.20938C8.43661 2.42372 8.47827 2.68203 8.47827 2.98431V4.65783C8.47827 4.88866 8.48087 5.09202 8.48608 5.26789C8.49649 5.43826 8.51211 5.60589 8.53294 5.77077H7.57226C7.55143 5.64986 7.53842 5.55917 7.53321 5.49872C7.53321 5.43277 7.53321 5.33659 7.53321 5.21018C7.41866 5.38605 7.24422 5.53994 7.00991 5.67184C6.78081 5.80374 6.48661 5.8697 6.12734 5.8697ZM6.44756 5.02881C6.57253 5.02881 6.69489 5.01232 6.81465 4.97935C6.93441 4.94088 7.04115 4.88592 7.13488 4.81447C7.2286 4.73753 7.3041 4.64135 7.36138 4.52593C7.41866 4.41052 7.44729 4.27586 7.44729 4.12198V3.91588H6.40851C6.21065 3.91588 6.05444 3.96534 5.93988 4.06427C5.83054 4.1577 5.77587 4.28686 5.77587 4.45174C5.77587 4.62761 5.83314 4.76775 5.94769 4.87218C6.06225 4.9766 6.22887 5.02881 6.44756 5.02881Z" fill="white"/>
<path d="M11.2134 5.8697C10.9271 5.8697 10.6589 5.82298 10.409 5.72955C10.1642 5.63612 9.95076 5.49597 9.76852 5.30911C9.58627 5.12224 9.44308 4.88866 9.33894 4.60837C9.2348 4.32808 9.18273 4.00107 9.18273 3.62734V3.46246C9.18273 3.11072 9.23741 2.8002 9.34675 2.53089C9.4561 2.26159 9.60189 2.03626 9.78414 1.85489C9.97159 1.67352 10.1877 1.53612 10.4324 1.44269C10.6771 1.34926 10.9375 1.30254 11.2134 1.30254C11.505 1.30254 11.7628 1.34376 11.9867 1.4262C12.2158 1.50864 12.4084 1.62131 12.5646 1.76421C12.7209 1.9071 12.8432 2.07473 12.9317 2.26709C13.0203 2.45945 13.0723 2.66555 13.0879 2.88538H12.0413C11.9997 2.68203 11.9138 2.52265 11.7836 2.40723C11.6586 2.28632 11.4686 2.22587 11.2134 2.22587C11.0781 2.22587 10.9505 2.2506 10.8307 2.30006C10.7162 2.34953 10.612 2.42647 10.5183 2.53089C10.4298 2.62982 10.3595 2.75623 10.3074 2.91012C10.2554 3.064 10.2293 3.24812 10.2293 3.46246V3.62734C10.2293 3.85817 10.2528 4.05877 10.2996 4.22915C10.3517 4.39403 10.422 4.53143 10.5105 4.64135C10.599 4.74577 10.7032 4.82271 10.8229 4.87218C10.9427 4.92164 11.0729 4.94637 11.2134 4.94637C11.4165 4.94637 11.5909 4.89141 11.7367 4.78149C11.8877 4.66608 11.9893 4.5012 12.0413 4.28686H13.0879C13.0619 4.52868 12.9968 4.74852 12.8927 4.94637C12.7937 5.13873 12.661 5.30361 12.4944 5.44101C12.3329 5.57841 12.1429 5.68558 11.9242 5.76252C11.7055 5.83397 11.4686 5.8697 11.2134 5.8697Z" fill="white"/>
<path d="M13.7942 1.40147H14.8252V4.86393H16.0514V1.40147H17.0824V4.86393H18.3087V1.40147H19.3396V5.77077H13.7942V1.40147Z" fill="white"/>
<path d="M20.2775 1.40147H21.3085V4.20442L23.1517 1.40147H24.1046V5.77077H23.0736V2.96782L21.2304 5.77077H20.2775V1.40147Z" fill="white"/>
<path d="M25.0446 1.40147H26.0053V2.0445C26.1094 1.84665 26.2734 1.67352 26.4973 1.52513C26.7212 1.37674 27.005 1.30254 27.3487 1.30254C27.9006 1.30254 28.3302 1.48391 28.6374 1.84665C28.9498 2.20388 29.106 2.74249 29.106 3.46246V3.62734C29.106 4.38029 28.9472 4.94362 28.6296 5.31735C28.3172 5.68558 27.8902 5.8697 27.3487 5.8697C27.0675 5.8697 26.8176 5.80649 26.5989 5.68008C26.3854 5.54818 26.211 5.37781 26.0756 5.16896V7.41956H25.0446V1.40147ZM27.1065 4.94637C27.3773 4.94637 27.6038 4.8392 27.7861 4.62486C27.9683 4.40502 28.0594 4.07251 28.0594 3.62734V3.46246C28.0594 3.05026 27.9709 2.74249 27.7939 2.53914C27.6168 2.33029 27.3877 2.22587 27.1065 2.22587C26.8098 2.22587 26.5624 2.31655 26.3646 2.49792C26.1719 2.67379 26.0756 2.94034 26.0756 3.29758V3.79222C26.0756 4.18243 26.1693 4.47372 26.3567 4.66608C26.5494 4.85294 26.7993 4.94637 27.1065 4.94637Z" fill="white"/>
<path d="M31.7243 5.8697C31.4432 5.8697 31.175 5.82573 30.9199 5.73779C30.6699 5.64436 30.4512 5.50696 30.2638 5.32559C30.0763 5.13873 29.9279 4.90515 29.8186 4.62486C29.7092 4.33907 29.6546 4.00656 29.6546 3.62734V3.46246C29.6546 3.09973 29.7066 2.78371 29.8108 2.51441C29.9149 2.2451 30.0581 2.02252 30.2404 1.84665C30.4226 1.66528 30.6335 1.53063 30.873 1.44269C31.1125 1.34926 31.3703 1.30254 31.6462 1.30254C32.2971 1.30254 32.7918 1.48391 33.1302 1.84665C33.4687 2.20938 33.6379 2.73424 33.6379 3.42124V3.8829H30.709C30.7142 4.07526 30.7454 4.24289 30.8027 4.38578C30.86 4.52318 30.9355 4.63585 31.0292 4.72379C31.1229 4.81172 31.2297 4.87767 31.3494 4.92164C31.4744 4.96011 31.5994 4.97935 31.7243 4.97935C31.9899 4.97935 32.1904 4.93813 32.3257 4.85569C32.4611 4.77325 32.5574 4.65234 32.6147 4.49296H33.5598C33.4765 4.94912 33.2708 5.29262 32.9428 5.52345C32.6147 5.75428 32.2086 5.8697 31.7243 5.8697ZM31.6853 2.19289C31.5655 2.19289 31.4458 2.20938 31.326 2.24236C31.2115 2.27533 31.1099 2.32754 31.0214 2.39899C30.9329 2.47044 30.86 2.56662 30.8027 2.68753C30.7454 2.80844 30.7142 2.95408 30.709 3.12446H32.6382C32.6329 2.94309 32.6043 2.79195 32.5522 2.67104C32.5054 2.55013 32.4377 2.45395 32.3492 2.3825C32.2659 2.31106 32.1669 2.26159 32.0524 2.23411C31.9378 2.20663 31.8155 2.19289 31.6853 2.19289Z" fill="white"/>
<path d="M34.3805 1.40147H35.4115V3.09148H37.1766V1.40147H38.2076V5.77077H37.1766V3.99832H35.4115V5.77077H34.3805V1.40147Z" fill="white"/>
<path d="M39.1476 1.40147H40.1786V3.09148H41.9437V1.40147H42.9747V5.77077H41.9437V3.99832H40.1786V5.77077H39.1476V1.40147Z" fill="white"/>
<path d="M45.1565 5.8697C44.9326 5.8697 44.7348 5.83672 44.563 5.77077C44.3911 5.69932 44.2453 5.60314 44.1256 5.48223C44.0058 5.35582 43.9147 5.21018 43.8522 5.0453C43.7897 4.87493 43.7585 4.69081 43.7585 4.49296C43.7585 3.6136 44.2531 3.17392 45.2425 3.17392H46.4765V2.96782C46.4765 2.68203 46.414 2.48143 46.2891 2.36601C46.1693 2.2506 45.9766 2.19289 45.7111 2.19289C45.4768 2.19289 45.3075 2.23686 45.2034 2.3248C45.0993 2.40723 45.0394 2.51166 45.0238 2.63807H43.9928C44.0032 2.4512 44.0475 2.27533 44.1256 2.11045C44.2089 1.94557 44.3234 1.80543 44.4692 1.69001C44.6202 1.5691 44.8025 1.47567 45.016 1.40972C45.2294 1.33827 45.4742 1.30254 45.7501 1.30254C46.0157 1.30254 46.2552 1.33277 46.4687 1.39323C46.6874 1.45368 46.8722 1.55261 47.0232 1.69001C47.1794 1.82191 47.2992 1.99504 47.3825 2.20938C47.4658 2.42372 47.5075 2.68203 47.5075 2.98431V4.65783C47.5075 4.88866 47.5101 5.09202 47.5153 5.26789C47.5257 5.43826 47.5413 5.60589 47.5622 5.77077H46.6015C46.5806 5.64986 46.5676 5.55917 46.5624 5.49872C46.5624 5.43277 46.5624 5.33659 46.5624 5.21018C46.4479 5.38605 46.2734 5.53994 46.0391 5.67184C45.81 5.80374 45.5158 5.8697 45.1565 5.8697ZM45.4768 5.02881C45.6017 5.02881 45.7241 5.01232 45.8439 4.97935C45.9636 4.94088 46.0704 4.88592 46.1641 4.81447C46.2578 4.73753 46.3333 4.64135 46.3906 4.52593C46.4479 4.41052 46.4765 4.27586 46.4765 4.12198V3.91588H45.4377C45.2399 3.91588 45.0837 3.96534 44.9691 4.06427C44.8598 4.1577 44.8051 4.28686 44.8051 4.45174C44.8051 4.62761 44.8624 4.76775 44.9769 4.87218C45.0915 4.9766 45.2581 5.02881 45.4768 5.02881Z" fill="white"/>
<path d="M49.2429 4.13022C48.9253 4.0203 48.6936 3.85542 48.5478 3.63558C48.402 3.41574 48.3291 3.15743 48.3291 2.86065C48.3291 2.64631 48.3629 2.4512 48.4306 2.27533C48.5035 2.09396 48.6103 1.94008 48.7509 1.81367C48.8915 1.68177 49.0685 1.58009 49.282 1.50864C49.5007 1.4372 49.7558 1.40147 50.0474 1.40147H52V5.77077H50.969V4.26212H50.227L49.3288 5.77077H48.1729L49.2429 4.13022ZM49.3601 2.86065C49.3601 3.04752 49.4174 3.18491 49.5319 3.27285C49.6517 3.36079 49.8105 3.40475 50.0083 3.40475H50.969V2.30831H50.0083C49.8105 2.30831 49.6517 2.35502 49.5319 2.44845C49.4174 2.53639 49.3601 2.67379 49.3601 2.86065Z" fill="white"/>
<path d="M7.81622 12.0008H10.7842V12.9077H8.84719V16.3701H7.81622V12.0008Z" fill="white"/>
<path d="M12.4962 16.4691C12.2723 16.4691 12.0744 16.4361 11.9026 16.3701C11.7308 16.2987 11.585 16.2025 11.4652 16.0816C11.3454 15.9552 11.2543 15.8095 11.1918 15.6447C11.1294 15.4743 11.0981 15.2902 11.0981 15.0923C11.0981 14.213 11.5928 13.7733 12.5821 13.7733H13.8161V13.5672C13.8161 13.2814 13.7537 13.0808 13.6287 12.9654C13.5089 12.85 13.3163 12.7923 13.0507 12.7923C12.8164 12.7923 12.6472 12.8362 12.543 12.9242C12.4389 13.0066 12.379 13.111 12.3634 13.2374H11.3324C11.3428 13.0506 11.3871 12.8747 11.4652 12.7098C11.5485 12.5449 11.6631 12.4048 11.8089 12.2894C11.9599 12.1685 12.1421 12.075 12.3556 12.0091C12.5691 11.9376 12.8138 11.9019 13.0898 11.9019C13.3553 11.9019 13.5948 11.9321 13.8083 11.9926C14.027 12.0531 14.2119 12.152 14.3629 12.2894C14.5191 12.4213 14.6388 12.5944 14.7222 12.8087C14.8055 13.0231 14.8471 13.2814 14.8471 13.5837V15.2572C14.8471 15.488 14.8497 15.6914 14.8549 15.8673C14.8653 16.0376 14.881 16.2053 14.9018 16.3701H13.9411C13.9203 16.2492 13.9073 16.1585 13.9021 16.0981C13.9021 16.0321 13.9021 15.936 13.9021 15.8095C13.7875 15.9854 13.6131 16.1393 13.3788 16.2712C13.1497 16.4031 12.8555 16.4691 12.4962 16.4691ZM12.8164 15.6282C12.9414 15.6282 13.0637 15.6117 13.1835 15.5787C13.3033 15.5402 13.41 15.4853 13.5037 15.4138C13.5975 15.3369 13.673 15.2407 13.7302 15.1253C13.7875 15.0099 13.8161 14.8752 13.8161 14.7213V14.5152H12.7774C12.5795 14.5152 12.4233 14.5647 12.3087 14.6636C12.1994 14.7571 12.1447 14.8862 12.1447 15.0511C12.1447 15.227 12.202 15.3671 12.3165 15.4715C12.4311 15.576 12.5977 15.6282 12.8164 15.6282Z" fill="white"/>
<path d="M15.7468 12.0008H16.7075V12.6439C16.8117 12.446 16.9757 12.2729 17.1996 12.1245C17.4235 11.9761 17.7073 11.9019 18.0509 11.9019C18.6029 11.9019 19.0324 12.0833 19.3396 12.446C19.6521 12.8033 19.8083 13.3419 19.8083 14.0618V14.2267C19.8083 14.9797 19.6494 15.543 19.3318 15.9167C19.0194 16.285 18.5924 16.4691 18.0509 16.4691C17.7697 16.4691 17.5198 16.4059 17.3011 16.2795C17.0876 16.1476 16.9132 15.9772 16.7778 15.7683V18.0189H15.7468V12.0008ZM17.8088 15.5457C18.0796 15.5457 18.3061 15.4386 18.4883 15.2242C18.6705 15.0044 18.7617 14.6719 18.7617 14.2267V14.0618C18.7617 13.6496 18.6731 13.3419 18.4961 13.1385C18.3191 12.9297 18.09 12.8252 17.8088 12.8252C17.512 12.8252 17.2647 12.9159 17.0668 13.0973C16.8741 13.2732 16.7778 13.5397 16.7778 13.897V14.3916C16.7778 14.7818 16.8715 15.0731 17.059 15.2654C17.2516 15.4523 17.5016 15.5457 17.8088 15.5457Z" fill="white"/>
<path d="M21.7939 16.4691C21.57 16.4691 21.3722 16.4361 21.2003 16.3701C21.0285 16.2987 20.8827 16.2025 20.763 16.0816C20.6432 15.9552 20.5521 15.8095 20.4896 15.6447C20.4271 15.4743 20.3959 15.2902 20.3959 15.0923C20.3959 14.213 20.8905 13.7733 21.8799 13.7733H23.1139V13.5672C23.1139 13.2814 23.0514 13.0808 22.9264 12.9654C22.8067 12.85 22.614 12.7923 22.3485 12.7923C22.1142 12.7923 21.9449 12.8362 21.8408 12.9242C21.7367 13.0066 21.6768 13.111 21.6612 13.2374H20.6302C20.6406 13.0506 20.6849 12.8747 20.763 12.7098C20.8463 12.5449 20.9608 12.4048 21.1066 12.2894C21.2576 12.1685 21.4399 12.075 21.6533 12.0091C21.8668 11.9376 22.1116 11.9019 22.3875 11.9019C22.6531 11.9019 22.8926 11.9321 23.1061 11.9926C23.3248 12.0531 23.5096 12.152 23.6606 12.2894C23.8168 12.4213 23.9366 12.5944 24.0199 12.8087C24.1032 13.0231 24.1449 13.2814 24.1449 13.5837V15.2572C24.1449 15.488 24.1475 15.6914 24.1527 15.8673C24.1631 16.0376 24.1787 16.2053 24.1995 16.3701H23.2389C23.218 16.2492 23.205 16.1585 23.1998 16.0981C23.1998 16.0321 23.1998 15.936 23.1998 15.8095C23.0853 15.9854 22.9108 16.1393 22.6765 16.2712C22.4474 16.4031 22.1532 16.4691 21.7939 16.4691ZM22.1142 15.6282C22.2391 15.6282 22.3615 15.6117 22.4813 15.5787C22.601 15.5402 22.7078 15.4853 22.8015 15.4138C22.8952 15.3369 22.9707 15.2407 23.028 15.1253C23.0853 15.0099 23.1139 14.8752 23.1139 14.7213V14.5152H22.0751C21.8772 14.5152 21.721 14.5647 21.6065 14.6636C21.4971 14.7571 21.4425 14.8862 21.4425 15.0511C21.4425 15.227 21.4997 15.3671 21.6143 15.4715C21.7289 15.576 21.8955 15.6282 22.1142 15.6282Z" fill="white"/>
<path d="M25.0446 12.0008H26.0756V13.6909H27.8407V12.0008H28.8717V16.3701H27.8407V14.5977H26.0756V16.3701H25.0446V12.0008Z" fill="white"/>
<path d="M30.8192 12.9077H29.4993V12.0008H33.1702V12.9077H31.8502V16.3701H30.8192V12.9077Z" fill="white"/>
<path d="M33.7932 12.0008H34.8242V14.8038L36.6674 12.0008H37.6203V16.3701H36.5893V13.5672L34.746 16.3701H33.7932V12.0008Z" fill="white"/>
<path d="M39.396 14.7296C39.0784 14.6197 38.8467 14.4548 38.7009 14.235C38.5551 14.0151 38.4822 13.7568 38.4822 13.46C38.4822 13.2457 38.516 13.0506 38.5837 12.8747C38.6566 12.6933 38.7634 12.5394 38.9039 12.413C39.0445 12.2811 39.2216 12.1795 39.435 12.108C39.6537 12.0366 39.9089 12.0008 40.2005 12.0008H42.1531V16.3701H41.1221V14.8615H40.3801L39.4819 16.3701H38.326L39.396 14.7296ZM39.5131 13.46C39.5131 13.6469 39.5704 13.7843 39.685 13.8722C39.8047 13.9602 39.9636 14.0041 40.1614 14.0041H41.1221V12.9077H40.1614C39.9636 12.9077 39.8047 12.9544 39.685 13.0478C39.5704 13.1358 39.5131 13.2732 39.5131 13.46Z" fill="white"/>
<path d="M8.64577 22.6002H9.67674V24.2902H11.4419V22.6002H12.4729V26.9695H11.4419V25.1971H9.67674V26.9695H8.64577V22.6002Z" fill="white"/>
<path d="M14.6547 27.0684C14.4308 27.0684 14.233 27.0355 14.0611 26.9695C13.8893 26.8981 13.7435 26.8019 13.6237 26.681C13.504 26.5546 13.4129 26.4089 13.3504 26.244C13.2879 26.0737 13.2567 25.8895 13.2567 25.6917C13.2567 24.8123 13.7513 24.3727 14.7406 24.3727H15.9747V24.1666C15.9747 23.8808 15.9122 23.6802 15.7872 23.5648C15.6675 23.4493 15.4748 23.3916 15.2093 23.3916C14.975 23.3916 14.8057 23.4356 14.7016 23.5235C14.5975 23.606 14.5376 23.7104 14.5219 23.8368H13.491C13.5014 23.6499 13.5456 23.4741 13.6237 23.3092C13.7071 23.1443 13.8216 23.0042 13.9674 22.8887C14.1184 22.7678 14.3007 22.6744 14.5141 22.6085C14.7276 22.537 14.9724 22.5013 15.2483 22.5013C15.5139 22.5013 15.7534 22.5315 15.9669 22.592C16.1856 22.6524 16.3704 22.7513 16.5214 22.8887C16.6776 23.0207 16.7974 23.1938 16.8807 23.4081C16.964 23.6225 17.0057 23.8808 17.0057 24.183V25.8566C17.0057 26.0874 17.0083 26.2908 17.0135 26.4666C17.0239 26.637 17.0395 26.8046 17.0603 26.9695H16.0997C16.0788 26.8486 16.0658 26.7579 16.0606 26.6975C16.0606 26.6315 16.0606 26.5353 16.0606 26.4089C15.946 26.5848 15.7716 26.7387 15.5373 26.8706C15.3082 27.0025 15.014 27.0684 14.6547 27.0684ZM14.975 26.2276C15.0999 26.2276 15.2223 26.2111 15.342 26.1781C15.4618 26.1396 15.5685 26.0847 15.6623 26.0132C15.756 25.9363 15.8315 25.8401 15.8888 25.7247C15.946 25.6093 15.9747 25.4746 15.9747 25.3207V25.1146H14.9359C14.738 25.1146 14.5818 25.1641 14.4673 25.263C14.3579 25.3564 14.3033 25.4856 14.3033 25.6505C14.3033 25.8263 14.3605 25.9665 14.4751 26.0709C14.5896 26.1753 14.7563 26.2276 14.975 26.2276Z" fill="white"/>
<path d="M19.6237 26.0709L21.5372 24.3314C21.7143 24.1666 21.8653 24.0237 21.9902 23.9028C22.1152 23.7763 22.2167 23.6609 22.2948 23.5565C22.3729 23.4521 22.4276 23.3504 22.4589 23.2515C22.4953 23.1526 22.5135 23.0454 22.5135 22.93C22.5135 22.6936 22.451 22.504 22.3261 22.3611C22.2011 22.2127 22.0163 22.1385 21.7715 22.1385C21.4904 22.1385 21.2691 22.221 21.1077 22.3859C20.9514 22.5452 20.8733 22.8228 20.8733 23.2185H19.7018C19.7018 22.5645 19.8762 22.0479 20.2251 21.6686C20.5792 21.2894 21.0946 21.0998 21.7715 21.0998C22.0892 21.0998 22.3651 21.1465 22.5994 21.24C22.839 21.3279 23.0394 21.4543 23.2008 21.6192C23.3623 21.7786 23.482 21.9709 23.5601 22.1963C23.6434 22.4216 23.6851 22.6662 23.6851 22.93C23.6851 23.1278 23.6512 23.3174 23.5836 23.4988C23.5159 23.6747 23.4221 23.845 23.3024 24.0099C23.1878 24.1748 23.0525 24.3369 22.8962 24.4963C22.74 24.6502 22.5734 24.8041 22.3964 24.958L21.2717 25.9473H23.7632V26.9695H19.6237V26.0709Z" fill="white"/>
<path d="M26.5719 22.6002H29.5399V23.507H27.6029V26.9695H26.5719V22.6002Z" fill="white"/>
<path d="M31.9608 27.0684C31.6796 27.0684 31.4115 27.0245 31.1563 26.9365C30.9064 26.8431 30.6877 26.7029 30.5002 26.5161C30.3128 26.3292 30.1644 26.0956 30.055 25.8154C29.9457 25.5351 29.891 25.2053 29.891 24.8261V24.6612C29.891 24.304 29.9457 23.9907 30.055 23.7214C30.1644 23.4521 30.3128 23.2267 30.5002 23.0454C30.6877 22.864 30.9064 22.7294 31.1563 22.6414C31.4115 22.548 31.6796 22.5013 31.9608 22.5013C32.242 22.5013 32.5075 22.548 32.7574 22.6414C33.0074 22.7294 33.2261 22.864 33.4135 23.0454C33.6062 23.2267 33.7572 23.4521 33.8665 23.7214C33.9759 23.9907 34.0305 24.304 34.0305 24.6612V24.8261C34.0305 25.1998 33.9759 25.5268 33.8665 25.8071C33.7572 26.0874 33.6062 26.321 33.4135 26.5078C33.2261 26.6947 33.0074 26.8349 32.7574 26.9283C32.5075 27.0217 32.242 27.0684 31.9608 27.0684ZM31.9608 26.1451C32.2524 26.1451 32.4945 26.0352 32.6871 25.8154C32.885 25.5955 32.9839 25.2658 32.9839 24.8261V24.6612C32.9839 24.26 32.885 23.955 32.6871 23.7461C32.4945 23.5318 32.2524 23.4246 31.9608 23.4246C31.664 23.4246 31.4193 23.5318 31.2266 23.7461C31.0339 23.955 30.9376 24.26 30.9376 24.6612V24.8261C30.9376 25.2713 31.0339 25.6038 31.2266 25.8236C31.4193 26.0379 31.664 26.1451 31.9608 26.1451Z" fill="white"/>
<path d="M34.3808 26.0627H34.8494C34.9015 25.9802 34.9483 25.8621 34.99 25.7082C35.0317 25.5488 35.0629 25.3729 35.0837 25.1806C35.1098 24.9827 35.128 24.7766 35.1384 24.5623C35.154 24.3424 35.1618 24.1281 35.1618 23.9192V22.6002H38.4032V26.0627H38.9108V28H38.0048V26.9695H35.2868V28H34.3808V26.0627ZM37.3722 26.0627V23.507H36.1069V24.0841C36.1069 24.2765 36.1017 24.4661 36.0913 24.653C36.0809 24.8398 36.0652 25.0212 36.0444 25.1971C36.0288 25.3674 36.0054 25.5268 35.9741 25.6752C35.9429 25.8236 35.9038 25.9528 35.857 26.0627H37.3722Z" fill="white"/>
<path d="M40.8852 27.0684C40.6613 27.0684 40.4635 27.0355 40.2916 26.9695C40.1198 26.8981 39.974 26.8019 39.8542 26.681C39.7345 26.5546 39.6434 26.4089 39.5809 26.244C39.5184 26.0737 39.4872 25.8895 39.4872 25.6917C39.4872 24.8123 39.9818 24.3727 40.9711 24.3727H42.2052V24.1666C42.2052 23.8808 42.1427 23.6802 42.0177 23.5648C41.898 23.4493 41.7053 23.3916 41.4398 23.3916C41.2054 23.3916 41.0362 23.4356 40.9321 23.5235C40.8279 23.606 40.7681 23.7104 40.7524 23.8368H39.7215C39.7319 23.6499 39.7761 23.4741 39.8542 23.3092C39.9376 23.1443 40.0521 23.0042 40.1979 22.8887C40.3489 22.7678 40.5312 22.6744 40.7446 22.6085C40.9581 22.537 41.2028 22.5013 41.4788 22.5013C41.7444 22.5013 41.9839 22.5315 42.1974 22.592C42.4161 22.6524 42.6009 22.7513 42.7519 22.8887C42.9081 23.0207 43.0279 23.1938 43.1112 23.4081C43.1945 23.6225 43.2362 23.8808 43.2362 24.183V25.8566C43.2362 26.0874 43.2388 26.2908 43.244 26.4666C43.2544 26.637 43.27 26.8046 43.2908 26.9695H42.3302C42.3093 26.8486 42.2963 26.7579 42.2911 26.6975C42.2911 26.6315 42.2911 26.5353 42.2911 26.4089C42.1765 26.5848 42.0021 26.7387 41.7678 26.8706C41.5387 27.0025 41.2445 27.0684 40.8852 27.0684ZM41.2055 26.2276C41.3304 26.2276 41.4528 26.2111 41.5725 26.1781C41.6923 26.1396 41.799 26.0847 41.8928 26.0132C41.9865 25.9363 42.062 25.8401 42.1193 25.7247C42.1765 25.6093 42.2052 25.4746 42.2052 25.3207V25.1146H41.1664C40.9685 25.1146 40.8123 25.1641 40.6978 25.263C40.5884 25.3564 40.5338 25.4856 40.5338 25.6505C40.5338 25.8263 40.591 25.9665 40.7056 26.0709C40.8201 26.1753 40.9868 26.2276 41.2055 26.2276Z" fill="white"/>
</svg>
